<?xml version="1.0" encoding="us-ascii" standalone="no"?><svg xmlns="http://www.w3.org/2000/svg" xmlns:xlink="http://www.w3.org/1999/xlink" contentStyleType="text/css" height="673px" preserveAspectRatio="none" style="width:973px;height:673px;background:#FFFFFF;" version="1.1" viewBox="0 0 973 673" width="973px" zoomAndPan="magnify"><defs/><g><!--cluster H? th?ng qu?n l? ??i t?c & voucher--><g id="cluster_H&#7879; th&#7889;ng qu&#7843;n l&#253; &#273;&#7889;i t&#225;c &amp; voucher"><rect fill="none" height="464" rx="2.5" ry="2.5" style="stroke:#181818;stroke-width:1.0;" width="805.15" x="162" y="167.55"/><text fill="#000000" font-family="sans-serif" font-size="14" font-weight="bold" lengthAdjust="spacing" textLength="243" x="443.075" y="182.5559">H&#7879; th&#7889;ng qu&#7843;n l&#253; &#273;&#7889;i t&#225;c &amp; voucher</text></g><g id="elem_UC01"><ellipse cx="281.6852" cy="224.549" fill="#F1F1F1" rx="98.3452" ry="22.069" style="stroke:#181818;stroke-width:0.5;"/><text fill="#000000" font-family="sans-serif" font-size="14" lengthAdjust="spacing" textLength="159" x="200.3959" y="227.8835">&#272;&#259;ng k&#253; t&#224;i kho&#7843;n &#273;&#7889;i t&#225;c</text></g><g id="elem_UC02"><ellipse cx="281.694" cy="301.5528" fill="#F1F1F1" rx="87.314" ry="19.8628" style="stroke:#181818;stroke-width:0.5;"/><text fill="#000000" font-family="sans-serif" font-size="14" lengthAdjust="spacing" textLength="133" x="212.194" y="305.3058">Qu&#7843;n l&#253; h&#7891; s&#417; &#273;&#7889;i t&#225;c</text></g><g id="elem_UC03"><ellipse cx="281.6853" cy="447.5531" fill="#F1F1F1" rx="76.9653" ry="17.7931" style="stroke:#181818;stroke-width:0.5;"/><text fill="#000000" font-family="sans-serif" font-size="14" lengthAdjust="spacing" textLength="107" x="225.1853" y="451.306">T&#7841;o voucher m&#7899;i</text></g><g id="elem_UC04"><ellipse cx="875.3159" cy="230.5452" fill="#F1F1F1" rx="75.8259" ry="17.5652" style="stroke:#181818;stroke-width:0.5;"/><text fill="#000000" font-family="sans-serif" font-size="14" lengthAdjust="spacing" textLength="104" x="820.3159" y="234.2981">Qu&#7843;n l&#253; voucher</text></g><g id="elem_UC05"><ellipse cx="593.4271" cy="288.5514" fill="#F1F1F1" rx="80.4571" ry="18.4914" style="stroke:#181818;stroke-width:0.5;"/><text fill="#000000" font-family="sans-serif" font-size="14" lengthAdjust="spacing" textLength="116" x="532.4271" y="292.3044">G&#7917;i duy&#7879;t voucher</text></g><g id="elem_UC06"><ellipse cx="281.6918" cy="375.5484" fill="#F1F1F1" rx="82.0418" ry="18.8084" style="stroke:#181818;stroke-width:0.5;"/><text fill="#000000" font-family="sans-serif" font-size="14" lengthAdjust="spacing" textLength="120" x="218.6918" y="379.3013">Ch&#7881;nh s&#7917;a voucher</text></g><g id="elem_UC07"><ellipse cx="593.4303" cy="580.5521" fill="#F1F1F1" rx="91.0603" ry="20.6121" style="stroke:#181818;stroke-width:0.5;"/><text fill="#000000" font-family="sans-serif" font-size="14" lengthAdjust="spacing" textLength="142" x="519.4303" y="584.305">Ki&#7875;m tra voucher code</text></g><g id="elem_UC08"><ellipse cx="281.687" cy="592.5474" fill="#F1F1F1" rx="103.687" ry="23.1374" style="stroke:#181818;stroke-width:0.5;"/><text fill="#000000" font-family="sans-serif" font-size="14" lengthAdjust="spacing" textLength="171" x="195.6541" y="595.3856">X&#225;c nh&#7853;n s&#7917; d&#7909;ng voucher</text></g><g id="elem_UC09"><ellipse cx="281.6901" cy="517.554" fill="#F1F1F1" rx="73.2201" ry="17.044" style="stroke:#181818;stroke-width:0.5;"/><text fill="#000000" font-family="sans-serif" font-size="14" lengthAdjust="spacing" textLength="97" x="230.1901" y="521.307">B&#225;o c&#225;o &#273;&#7889;i t&#225;c</text></g><!--entity DT--><g id="elem_DT"><ellipse cx="60.5" cy="271.65" fill="#F1F1F1" rx="8" ry="8" style="stroke:#181818;stroke-width:0.5;"/><path d="M60.5,279.65 L60.5,306.65 M47.5,287.65 L73.5,287.65 M60.5,306.65 L47.5,321.65 M60.5,306.65 L73.5,321.65 " fill="none" style="stroke:#181818;stroke-width:0.5;"/><text fill="#000000" font-family="sans-serif" font-size="14" lengthAdjust="spacing" textLength="43" x="39" y="336.1559">&#272;&#7889;i t&#225;c</text></g><!--entity NVDT--><g id="elem_NVDT"><ellipse cx="60.5" cy="600.65" fill="#F1F1F1" rx="8" ry="8" style="stroke:#181818;stroke-width:0.5;"/><path d="M60.5,608.65 L60.5,635.65 M47.5,616.65 L73.5,616.65 M60.5,635.65 L47.5,650.65 M60.5,635.65 L73.5,650.65 " fill="none" style="stroke:#181818;stroke-width:0.5;"/><text fill="#000000" font-family="sans-serif" font-size="14" lengthAdjust="spacing" textLength="109" x="6" y="665.1559">Nh&#226;n vi&#234;n &#273;&#7889;i t&#225;c</text></g><!--link DT to UC01--><g id="link_DT_UC01"><path d="M82.27,292.73 C100.91,284.93 129.08,273.45 154,264.55 C175.72,256.79 194.0714,250.774 215.3614,244.144 " fill="none" id="DT-to-UC01" style="stroke:#181818;stroke-width:1.0;"/><polygon fill="#181818" points="221.09,242.36,211.3077,241.2169,216.3161,243.8467,213.6863,248.8551,221.09,242.36" style="stroke:#181818;stroke-width:1.0;"/></g><!--link DT to UC02--><g id="link_DT_UC02"><path d="M82.12,301.55 C107.75,301.55 147.11,301.55 188.02,301.55 " fill="none" id="DT-to-UC02" style="stroke:#181818;stroke-width:1.0;"/><polygon fill="#181818" points="194.02,301.55,185.02,297.55,189.02,301.55,185.02,305.55,194.02,301.55" style="stroke:#181818;stroke-width:1.0;"/></g><!--link DT to UC03--><g id="link_DT_UC03"><path d="M82.49,336.11 C99.04,360.56 124.25,392.3 154,411.55 C173.01,423.85 190.4422,430.5526 211.8122,435.9426 " fill="none" id="DT-to-UC03" style="stroke:#181818;stroke-width:1.0;"/><polygon fill="#181818" points="217.63,437.41,209.8816,431.3304,212.7818,436.1872,207.925,439.0875,217.63,437.41" style="stroke:#181818;stroke-width:1.0;"/></g><!--link DT to UC04--><g id="link_DT_UC04"><path d="M71.66,262.83 C84.05,224.35 109.12,167.45 154,141.55 C388.93,6 732.6793,158.6251 837.8693,211.5051 " fill="none" id="DT-to-UC04" style="stroke:#181818;stroke-width:1.0;"/><polygon fill="#181818" points="843.23,214.2,836.9855,206.5838,838.7627,211.9543,833.3923,213.7315,843.23,214.2" style="stroke:#181818;stroke-width:1.0;"/></g><!--link DT to UC07--><g id="link_DT_UC07"><path d="M80.18,262.72 C95.72,235.3 120.67,200.69 154,184.55 C246.55,139.74 293.3,138.75 385.37,184.55 C461.18,222.25 556.2288,477.8336 583.1988,554.0636 " fill="none" id="DT-to-UC07" style="stroke:#181818;stroke-width:1.0;"/><polygon fill="#181818" points="585.2,559.72,585.9691,549.9012,583.5323,555.0063,578.4272,552.5695,585.2,559.72" style="stroke:#181818;stroke-width:1.0;"/></g><!--link DT to UC08--><g id="link_DT_UC08"><path d="M65.24,340.44 C72.59,395.32 93.85,495.17 154,552.55 C166.35,564.33 176.5085,570.5971 192.7185,576.4671 " fill="none" id="DT-to-UC08" style="stroke:#181818;stroke-width:1.0;"/><polygon fill="#181818" points="198.36,578.51,191.2597,571.6846,193.6588,576.8076,188.5358,579.2066,198.36,578.51" style="stroke:#181818;stroke-width:1.0;"/></g><!--link DT to UC09--><g id="link_DT_UC09"><path d="M71.26,340.33 C83.64,381.59 109.01,445.87 154,482.55 C171.33,496.68 188.1208,503.7403 209.4508,508.7803 " fill="none" id="DT-to-UC09" style="stroke:#181818;stroke-width:1.0;"/><polygon fill="#181818" points="215.29,510.16,207.451,504.1976,210.424,509.0102,205.6114,511.9832,215.29,510.16" style="stroke:#181818;stroke-width:1.0;"/></g><!--link NVDT to UC07--><g id="link_NVDT_UC07"><path d="M115.3,632.59 C127.99,632.99 141.47,633.35 154,633.55 C256.82,635.22 283.35,646.4 385.37,633.55 C439.13,626.78 493.1747,612.2524 534.6347,599.5124 " fill="none" id="NVDT-to-UC07" style="stroke:#181818;stroke-width:1.0;"/><polygon fill="#181818" points="540.37,597.75,530.5921,596.57,535.5906,599.2186,532.9419,604.2171,540.37,597.75" style="stroke:#181818;stroke-width:1.0;"/></g><!--link NVDT to UC08--><g id="link_NVDT_UC08"><path d="M115.4,621.21 C140.5,616.85 164.9882,612.6049 192.8482,607.7749 " fill="none" id="NVDT-to-UC08" style="stroke:#181818;stroke-width:1.0;"/><polygon fill="#181818" points="198.76,606.75,189.209,604.3462,193.8335,607.6041,190.5756,612.2286,198.76,606.75" style="stroke:#181818;stroke-width:1.0;"/></g><!--link UC05 to UC04--><g id="link_UC05_UC04"><path d="M654.48,276.11 C702.82,266.09 764.4347,253.3169 811.8447,243.4969 " fill="none" id="UC05-to-UC04" style="stroke:#181818;stroke-width:1.0;stroke-dasharray:7.0,7.0;"/><polygon fill="#181818" points="817.72,242.28,808.0958,240.1886,812.8239,243.2941,809.7184,248.0223,817.72,242.28" style="stroke:#181818;stroke-width:1.0;"/><text fill="#000000" font-family="sans-serif" font-size="13" lengthAdjust="spacing" textLength="53" x="715.49" y="248.727">&#171;extend&#187;</text></g><!--link UC06 to UC05--><g id="link_UC06_UC05"><path d="M334.88,360.89 C392.29,344.76 478.1934,320.632 535.2834,304.602 " fill="none" id="UC06-to-UC05" style="stroke:#181818;stroke-width:1.0;stroke-dasharray:7.0,7.0;"/><polygon fill="#181818" points="541.06,302.98,531.3138,301.5619,536.2462,304.3317,533.4764,309.264,541.06,302.98" style="stroke:#181818;stroke-width:1.0;"/><text fill="#000000" font-family="sans-serif" font-size="13" lengthAdjust="spacing" textLength="53" x="417.37" y="320.337">&#171;extend&#187;</text></g><!--link UC08 to UC07--><g id="link_UC08_UC07"><path d="M384.11,588.62 C422.57,587.13 460.0545,585.6834 497.3045,584.2334 " fill="none" id="UC08-to-UC07" style="stroke:#181818;stroke-width:1.0;stroke-dasharray:7.0,7.0;"/><polygon fill="#181818" points="503.3,584,494.1512,580.3531,498.3038,584.1945,494.4624,588.347,503.3,584" style="stroke:#181818;stroke-width:1.0;"/><text fill="#000000" font-family="sans-serif" font-size="13" lengthAdjust="spacing" textLength="55" x="416.37" y="581.557">&#171;include&#187;</text></g><!--SRC=[TPBDIiD058NtynI7BDorQ7zJALdOWe9G4Agu3SdO34qdc4oA8gww47SMbswiuaRe2pIuIl4zvasSjAGTOzs44yvtxhqvnATN0Y90o0QUWCj2wWWMS68x8WXXB9zaCcKGwSmnO4VezdEdvwLl76EMVd8ifx-fteNYI3RAvWEVmZYHoGE4foW-m7Ki5-ySVlgb1x67SH0x7WqDt14WZgXZHpGxOJbHgQ72HVhACFI2LRwuzBopVw3dphPhrE9dHD-pNPcAdkdBnIp8xy189Yyivwh_pDuSlSPgEdOiapc36z-gpnT5igwJ7NNY8_SGgOHT91iwUSfaCXb1X1iCJk3Id6tgx6NMA_VaOivNa-7Av4DrMPXlwfcZL3NWP8yTPRN8FI7TFaebQzttLbSqNTLqJTDDJPkQRf7iZzbI-fj9I5OMokNrE1oYtQOtWdBNiZAhaLlrFvQPMysLnRZZnowrh1y0]--></g></svg>